Coordinates
version=1
nRows=16
nColumns=28
inDegrees=yes

Units are S.I. units (second, meters, Newtons, ...)
Angles are in degrees.

endheader
time	pelvis_tilt	pelvis_list	pelvis_rotation	pelvis_tx	pelvis_ty	pelvis_tz	hip_flexion_r	hip_adduction_r	hip_rotation_r	knee_angle_r	ankle_angle_r	subtalar_angle_r	mtp_angle_r	hip_flexion_l	hip_adduction_l	hip_rotation_l	knee_angle_l	socket_flexion	socket_adduction	socket_rotation	socket_tx	socket_ty	socket_tz	foot_flex	lumbar_extension	lumbar_bending	lumbar_rotation
      0.63333333	      2.13167116	     -3.07543515	      6.18638079	      0.00000967	      0.99156856	      0.26634483	     21.58093572	      3.76560089	     -8.68465422	     -5.07273618	     10.33231223	    -19.98059347	     -8.35226830	    -26.84396487	     -5.64919970	     -3.77893790	     -0.19352987	      4.06758880	      0.86543825	     20.33164001	      0.00000000	      0.00179526	      0.00000000	      8.15852689	    -12.69935541	      3.56263440	     -2.24090981
      0.63750000	      1.87955571	     -3.03389966	      6.21421321	      0.00008943	      0.99122925	      0.26627629	     21.94763012	      3.64616907	     -8.92860308	     -5.28616221	     10.41225365	    -19.73016636	     -7.98433840	    -26.43310984	     -5.60457689	     -3.84622521	     -0.59313565	      3.84541716	      0.76104257	     20.47347554	      0.00000000	      0.00167992	      0.00000000	      8.16867121	    -12.38426916	      3.51528143	     -2.45211883
      0.64166667	      1.93817750	     -3.13187113	      6.35312235	      0.00657683	      0.99046367	      0.26642527	     22.02364660	      3.76872556	     -8.65280706	     -5.99939364	     10.16362678	    -19.71101651	     -7.97298212	    -26.68887783	     -5.80096618	     -3.75536510	     -0.81001601	      3.95966637	      0.74977518	     20.48022175	      0.00000000	      0.00186689	      0.00000000	      8.11810759	    -12.35897486	      3.71687335	     -2.42721372
      0.64583333	      2.06563388	     -3.36151566	      6.26295115	      0.01273381	      0.98956313	      0.26694570	     22.32929745	      4.07338989	     -8.55026869	     -7.21379180	      9.68138289	    -19.83154381	     -7.91918993	    -27.00656383	     -6.02909540	     -3.86426316	     -1.13790784	      4.03584014	      0.73181756	     20.24743609	      0.00000000	      0.00156620	      0.00000000	      8.01054219	    -12.49790323	      4.04905787	     -2.40673434
      0.65000000	      2.12839271	     -3.48950138	      6.33714147	      0.01924121	      0.98882416	      0.26715352	     22.46653602	      4.23133627	     -8.32379569	     -8.06664559	      9.35928697	    -19.85732932	     -7.86509697	    -27.25072795	     -6.22477185	     -3.81747057	     -1.39688520	      4.15849416	      0.71662029	     20.26686161	      0.00000000	      0.00168028	      0.00000000	      7.92532899	    -12.46718877	      4.30951775	     -2.37094743
      0.65416667	      2.06268062	     -3.72677779	      6.14958148	      0.02586686	      0.98763362	      0.26768033	     22.96194963	      4.51675613	     -8.39412238	     -9.20550714	      7.13883850	    -21.18512865	     -1.83398443	    -27.10043182	     -6.41052664	     -4.69037777	     -2.61392516	      3.70091726	      0.47995824	     20.69084004	      0.00000000	      0.00135597	      0.00000000	      7.78176760	    -12.29207508	      4.58983138	     -1.98353647
      0.65833333	      2.15608263	     -3.91805764	      6.11720202	      0.03231799	      0.98691916	      0.26811187	     23.15913891	      4.76617995	     -8.23063664	    -10.22463410	      6.74193799	    -21.16609067	     -1.82480911	    -27.35925315	     -6.61616005	     -4.68643600	     -2.93473669	      3.83017943	      0.46149100	     20.45780530	      0.00000000	      0.00127847	      0.00000000	      7.60881287	    -12.31974954	      4.89688399	     -2.02378510
      0.66250000	      2.23307723	     -4.13991439	      6.06689988	      0.03879816	      0.98618888	      0.26860213	     23.40768838	      5.04331695	     -8.15123220	    -11.31748393	      6.31467262	    -21.21889303	     -1.75532853	    -27.57539150	     -6.84661471	     -4.76689037	     -3.31281033	      3.95721983	      0.42405853	     20.28155589	      0.00000000	      0.00111321	      0.00000000	      7.41357208	    -12.32917260	      5.20842108	     -1.99857595
      0.66666667	      2.30393676	     -4.34790069	      6.03166944	      0.04523723	      0.98555703	      0.26917176	     23.61986720	      5.31930663	     -7.98486897	    -12.33312752	      5.92314285	    -21.23882858	     -1.68467713	    -27.74999005	     -7.08683387	     -4.77750772	     -3.73036473	      4.09098990	      0.45330080	     20.15685531	      0.00000000	      0.00096751	      0.00000000	      7.18904500	    -12.35169953	      5.51909323	     -1.96079601
      0.67083333	      2.37808388	     -4.54948454	      6.02346195	      0.05168043	      0.98496679	      0.26963378	     23.79691656	      5.57708453	     -7.78238369	    -13.30597519	      5.56709623	    -21.24473151	     -1.63381333	    -27.91074520	     -7.32569264	     -4.74663971	     -4.14775570	      4.25294426	      0.45774447	     20.05724710	      0.00000000	      0.00078216	      0.00000000	      6.95425453	    -12.36433078	      5.82548690	     -1.92157689
      0.67500000	      2.44844313	     -4.82478053	      5.87192925	      0.05835918	      0.98436062	      0.27029469	     24.05217997	      5.93084186	     -7.77820749	    -14.43704487	      5.12978773	    -21.36044261	     -1.51091563	    -28.05379903	     -7.55318334	     -4.93635014	     -4.73198089	      4.30795420	      0.43277871	     19.75082127	      0.00000000	      0.00058656	      0.00000000	      6.65207459	    -12.34840123	      6.17522970	     -1.82732528
      0.67916667	      2.04648042	     -5.08311822	      5.71672815	      0.06501712	      0.98316299	      0.27106840	     24.74399122	      6.24630854	     -7.49508365	    -15.39717181	      3.91299701	    -22.28973315	      0.89709560	    -27.07791411	     -7.84390924	     -5.77617170	     -7.05704027	      3.37716830	     -0.02186347	     20.36522730	      0.00000000	      0.00031733	      0.00000000	      6.38416409	    -11.77263955	      6.40606785	     -1.25602079
      0.68333333	      2.16856739	     -5.26697300	      5.69745468	      0.07152728	      0.98287921	      0.27166333	     24.81248305	      6.50821758	     -7.27597319	    -16.30971470	      3.65070173	    -22.26382587	      0.92655702	    -27.24493810	     -8.06852883	     -5.69530819	     -7.49088441	      3.61804853	      0.02450026	     20.20377049	      0.00000000	      0.00023058	      0.00000000	      6.04565118	    -11.83278395	      6.67234400	     -1.31201864
      0.68750000	      2.31281838	     -5.54036615	      5.51568455	      0.07813757	      0.98254195	      0.27245228	     24.94300501	      6.88435304	     -7.23823245	    -17.38656881	      3.34217225	    -22.31382222	      0.98491518	    -27.42156541	     -8.29591401	     -5.74785267	     -8.10355712	      3.73615491	      0.05409689	     19.79926079	      0.00000000	      0.00000998	      0.00000000	      5.63760234	    -11.92562724	      7.03841760	     -1.32526415
      0.69166667	      2.32530262	     -5.80815407	      5.52111844	      0.08467007	      0.98221485	      0.27301354	     25.10540195	      7.18173735	     -7.24458039	    -18.21750611	      2.53783919	    -22.89674107	      2.64784924	    -26.73239356	     -8.71583613	     -6.43656412	    -10.67943492	      2.73861437	     -0.44667171	     20.30772439	      0.00000000	      0.00022982	      0.00000000	      5.26825654	    -11.83285792	      7.37520000	     -1.25680584
      0.69583333	      2.43845724	     -6.06722471	      5.38013737	      0.09132023	      0.98200482	      0.27378888	     25.17443651	      7.54421210	     -7.13395406	    -19.14219912	      2.32707737	    -22.88836339	      2.67737685	    -26.84732839	     -8.95055445	     -6.39480336	    -11.24588744	      2.95707565	     -0.37249686	     19.92957854	      0.00000000	      0.00004669	      0.00000000	      4.85367420	    -11.87961663	      7.70185393	     -1.20460985
